<?xml version="1.0" encoding="UTF-8" standalone="no"?>
<!-- Created with Inkscape (http://www.inkscape.org/) -->
<svg xmlns:rdf="http://www.w3.org/1999/02/22-rdf-syntax-ns#" xmlns="http://www.w3.org/2000/svg" height="11.353mm" width="7.0838mm" version="1.1" xmlns:cc="http://creativecommons.org/ns#" xmlns:xlink="http://www.w3.org/1999/xlink" viewBox="0 0 25.1 40.2271" xmlns:dc="http://purl.org/dc/elements/1.1/">
<defs>
<linearGradient id="a" y2="-35.437" gradientUnits="userSpaceOnUse" x2="1262.6" y1="-69.732" x1="1243">
<stop stop-color="#fff" stop-opacity=".38889" offset="0"/>
<stop stop-color="#00ee18" stop-opacity=".15556" offset="1"/>
</linearGradient>
</defs>
<metadata>
<rdf:RDF>
<cc:Work rdf:about="">
<dc:format>image/svg+xml</dc:format>
<dc:type rdf:resource="http://purl.org/dc/dcmitype/StillImage"/>
<dc:title/>
</cc:Work>
</rdf:RDF>
</metadata>
<g transform="translate(-1241.7 70.608)">
<path d="m1254.6-69.881c-6.573 0-12.043 5.6902-12.043 11.865 0 2.778 1.5634 6.3081 2.6934 8.7461l9.3066 17.871 9.2618-17.871c1.13-2.438 2.7382-5.7911 2.7382-8.7461 0-6.175-5.384-11.865-11.957-11.865z" stroke="#43a047" stroke-linecap="round" stroke-width="1.1" fill="#43a047"/>
<path fill="url(#a)" d="m1254.6-70.411c-6.8448 0-12.541 5.9255-12.541 12.356 0 2.8929 1.628 6.5689 2.8047 9.1077l9.6914 18.61 9.6447-18.61c1.1767-2.5388 2.8514-6.0305 2.8514-9.1077 0-6.4303-5.6065-12.356-12.451-12.356z"/>
<path d="m1254.6-68.952c-5.9439 0-10.937 5.219-10.937 10.75 0 2.359 1.4425 5.832 2.5625 8.25l0.031 0.03125 8.3145 15.969 8.25-15.969 0.029-0.03125c1.135-2.448 2.625-5.706 2.625-8.25 0-5.538-4.931-10.75-10.875-10.75z" stroke-opacity=".43889" stroke="#bbffc9" stroke-linecap="round" stroke-width="1.1" fill="none"/>
<g transform="translate(.375 -.75)" stroke="#fff" stroke-linecap="round" stroke-width="2" fill="none">
<path d="m1251.6-62.913 10.44 5.22"/>
<path d="m1246.4-60.303 10.44 5.22"/>
<path d="m1248.9-61.772 10.44 5.22"/>
<path d="m1251.3-63.057-5.2201 2.61"/>
<path d="m1257.4-54.602 4.6963-3.1725"/>
<path d="m1257.5-54.819v3.625"/>
<path d="m1246.4-60.1v3.625"/>
<path d="m1262-57.663v3.625"/>
</g>
</g>
</svg>
