<?xml version="1.0" encoding="UTF-8" standalone="no"?>
<!-- Created with Inkscape (http://www.inkscape.org/) -->

<svg
   xmlns:dc="http://purl.org/dc/elements/1.1/"
   xmlns:cc="http://creativecommons.org/ns#"
   xmlns:rdf="http://www.w3.org/1999/02/22-rdf-syntax-ns#"
   xmlns:svg="http://www.w3.org/2000/svg"
   xmlns="http://www.w3.org/2000/svg"
   xmlns:sodipodi="http://sodipodi.sourceforge.net/DTD/sodipodi-0.dtd"
   xmlns:inkscape="http://www.inkscape.org/namespaces/inkscape"
   viewBox="0 0 300 300.00001"
   height="300"
   width="300"
   version="1.1"
   id="svg2"
   inkscape:version="0.91 r13725"
   sodipodi:docname="icon.svg">
  <defs
     id="defs14" />
  <sodipodi:namedview
     pagecolor="#ffffff"
     bordercolor="#666666"
     borderopacity="1"
     objecttolerance="10"
     gridtolerance="10"
     guidetolerance="10"
     inkscape:pageopacity="0"
     inkscape:pageshadow="2"
     inkscape:window-width="1920"
     inkscape:window-height="1017"
     id="namedview12"
     showgrid="false"
     inkscape:zoom="0.78666667"
     inkscape:cx="-48.305087"
     inkscape:cy="147.45763"
     inkscape:window-x="0"
     inkscape:window-y="27"
     inkscape:window-maximized="1"
     inkscape:current-layer="svg2" />
  <title
     id="title4">Park Bench</title>
  <rect
     style="opacity:1;fill:#4ec9ff;fill-opacity:1;stroke:#ffffff;stroke-width:1;stroke-linecap:round;stroke-linejoin:round;stroke-miterlimit:4;stroke-dasharray:none;stroke-dashoffset:0;stroke-opacity:0.43888891"
     id="rect4142"
     width="268.22034"
     height="263.13559"
     x="15.254237"
     y="20.338984"
     rx="18.5"
     ry="18.5" />
  <g
     transform="translate(1003.8 -185.17)"
     id="g6">
    <path
       d="m18.5 0c-10.249 0-18.5 8.251-18.5 18.5v263c0 10.25 8.251 18.5 18.5 18.5h263c10.25 0 18.5-8.25 18.5-18.5v-263c0-10.249-8.25-18.5-18.5-18.5h-263zm99.07 43.064c0.78-0.001 2.35 0.331 3.48 0.737 2 0.716 2.07 0.797 2.19 2.685l0.13 1.948 52.55 20.066c28.9 11.036 52.7 19.97 52.89 19.852 0.19-0.119 0.35-0.584 0.35-1.032 0-2.761 2.32-2.917 8.77-0.597l4.46 1.599-0.29 2.686-0.28 2.683 4.29 1.596c4.11 1.528 4.29 1.649 4.2 2.834-0.61 8.129-1.59 17.939-1.81 18.149-0.16 0.15-0.89 0.48-1.64 0.72-1.16 0.39-1.76 0.26-4.08-0.85-1.5-0.72-2.81-1.23-2.91-1.13-0.1 0.09-0.23 0.62-0.3 1.17-0.1 0.87 0.44 1.24 4.27 2.97 2.41 1.09 4.41 2.01 4.44 2.05 0.1 0.11-1.56 17.47-1.72 17.95-0.08 0.25-0.81 0.67-1.62 0.95-1.32 0.44-1.73 0.36-3.7-0.73-2.7-1.49-2.88-1.51-2.88-0.24 0 0.83 0.69 1.34 3.98 2.96l3.98 1.95-0.24 2.19c-0.14 1.2-0.47 4.95-0.75 8.32-0.28 3.38-0.73 6.35-1 6.6-0.27 0.26-1 0.68-1.62 0.95-0.97 0.4-1.46 0.27-3.5-0.99-1.3-0.8-2.44-1.39-2.52-1.31-0.09 0.09-0.53 2.09-0.99 4.44-0.94 4.87-2.33 9.31-3.57 11.41-0.47 0.79-0.74 1.62-0.6 1.84s1.53 1.16 3.09 2.09c2.79 1.66 2.85 1.74 2.86 3.55 0.01 2.25 0.16 2.15-8.43 5.86-6.06 2.62-6.47 2.87-6.66 4.11-0.11 0.72-0.51 6.84-0.88 13.58-0.38 6.75-0.78 12.98-0.89 13.86-0.2 1.48-0.12 1.6 1.12 1.85 0.73 0.15 3 1.57 5.03 3.16 3.5 2.73 3.71 2.98 3.71 4.57 0 3.1 0.74 2.66-39.29 23.41-27.6 14.3-32.14 16.43-35.03 16.44-1.71 0.01-1.98-0.18-4.86-3.38-3.43-3.82-4.05-4.82-4.05-6.46 0-1.47 1.51-2.87 5.8-5.37l3.4-1.98v-3.77c0.01-7.63-0.99-35.33-1.29-35.66-0.17-0.18-1.03-0.04-1.91 0.33s-1.82 0.67-2.09 0.67c-0.71 0-6.51-5.69-7.24-7.1-0.9-1.73-0.76-3.21 0.37-3.98l0.99-0.68-1.1-1.06c-0.6-0.59-9.87-9.12-20.59-18.95s-20.02-18.35-20.66-18.94l-1.16-1.07-12.575 4.02c-13.245 4.23-18.489 5.7-20.263 5.7-1.481 0-4.479-3.3-4.479-4.93 0-0.9 0.37-1.44 1.424-2.08 0.783-0.48 1.755-0.87 2.162-0.87s0.854-0.18 0.99-0.4c0.137-0.22-0.747-7.27-1.963-15.66-3.011-20.8-3.018-20.84-3.796-20.55-0.356 0.14-1.381 0.37-2.278 0.51-1.466 0.24-1.768 0.11-2.986-1.28-1.467-1.67-2.326-4.31-1.494-4.58 0.884-0.3 0.525-1.08-1.258-2.72-1.277-1.18-1.754-1.97-1.754-2.9 0-1.28 0.005-1.29 5.367-2.52 2.952-0.67 5.777-1.32 6.279-1.44 0.659-0.15 1.886 0.58 4.381 2.63 3.654 3 5.244 3.58 2.01 0.74-1.616-1.42-1.873-1.87-1.752-3.1l0.143-1.44 5.256-1.24c2.891-0.68 5.617-1.24 6.054-1.24 0.438 0 1.472 0.51 2.299 1.14l1.504 1.15v-1.7-1.69l5.367-1.22c2.952-0.67 5.638-1.21 5.971-1.2s1.269 0.42 2.08 0.92l1.477 0.91v-1.51c0-1.32 0.164-1.55 1.204-1.72 0.66-0.11 3.18-0.65 5.58-1.21l4.39-1 2.98 1.87c2.09 1.32 3.11 1.74 3.44 1.42 0.81-0.82 1.67-5.475 1.67-9.157l0.01-3.575-3.67-2.062-3.68-2.063-0.29-4.658c-0.16-2.562-0.4-5.284-0.53-6.049-0.22-1.267-0.13-1.403 1.01-1.546 0.7-0.089 2.15 0.279 3.31 0.841 2.35 1.139 2.97 1.233 2.97 0.453 0-0.301-1.72-1.433-3.83-2.517l-3.83-1.973-0.3-4.381c-0.16-2.409-0.39-5.198-0.49-6.199-0.18-1.709-0.12-1.834 1.06-2.068 0.77-0.154 2.02 0.08 3.26 0.613 2.45 1.052 2.38 1.05 2.38 0.051 0-0.593-0.95-1.239-3.5-2.391-1.93-0.868-3.53-1.637-3.55-1.707-0.2-0.526-1.08-12.464-0.95-12.721 0.29-0.558 3.13-0.361 4.78 0.331 2.21 0.924 2.78 0.833 2.78-0.44 0-0.943 0.2-1.095 1.43-1.098zm6.44 20.936c-0.05 0.001-0.08 0.009-0.1 0.025-0.26 0.261-0.11 0.7 0.4 1.182 0.7 0.661 101.44 46.123 102.33 46.173 0.18 0.01 0.32-0.52 0.31-1.18-0.01-1.17-0.72-1.52-22.23-11.03-12.22-5.402-23.4-10.354-24.84-11.004-2.97-1.332-26.55-11.761-43.99-19.453-6.82-3.01-11.15-4.725-11.88-4.713zm1.46 16.895c-0.13 0.133-0.14 0.499-0.02 0.81 0.12 0.312 21.19 11.299 46.82 24.415 25.63 13.12 47.97 24.6 49.66 25.51 3.43 1.86 4.16 2.02 4.16 0.91 0-0.93 1.33-0.23-56.21-29.46-24.29-12.336-44.27-22.32-44.41-22.185zm1 16.121c-0.06 0.083-0.33 1.925-0.59 4.094-0.26 2.17-0.79 4.83-1.19 5.91-0.4 1.09-0.76 2.22-0.8 2.52-0.05 0.29 21.6 14.14 48.1 30.76 47.38 29.72 48.2 30.21 48.89 29.31 0.38-0.51 1.11-2.23 1.62-3.82v-0.01c0.96-3.02 2.29-9.98 2.27-11.88-0.01-1-4.61-3.72-49.09-29.07-27-15.38-49.14-27.898-49.21-27.814zm-13.85 19.444l-0.74 0.37 1.19 0.81v-0.87l-0.45-0.31zm-15.337 3.06l-0.73 0.38 13.907 10.54c0.45 0.54 0.75 0.78 0.83 0.63l1.78 1.34v-0.99l-15.787-11.9zm23.677 2.59v0.9l83 56.53 1.27-0.33-84.27-57.1zm-40.929 1.56c-0.676 0-0.209 0.4 16.395 14.16 8.554 7.09 15.714 12.79 15.924 12.67 0.2-0.12 0.1-0.46-0.22-0.76-0.33-0.29-2.96-2.48-5.85-4.85-2.89-2.38-5.35-4.42-5.47-4.56-0.12-0.13-1.776-1.49-3.673-3.03-1.898-1.53-3.868-3.14-4.379-3.58-4.217-3.61-12.372-10.05-12.727-10.05zm-7.482 12.36c-0.017 0-0.029 0.01-0.039 0.02-0.24 0.24 2.671 23.67 3.127 25.16 0.115 0.38 0.512 0.42 1.384 0.14 0.674-0.22 3.887-1.21 7.139-2.2 9.198-2.81 10.129-3.13 9.988-3.45-0.072-0.17-3.975-3.83-8.673-8.14-4.699-4.3-9.475-8.72-10.614-9.81-1.067-1.02-2.065-1.76-2.312-1.72zm48.411 1.33v1.03l62.42 47.29 0.76-0.21c0.17 0.1 0.28 0.15 0.31 0.13 0.06-0.06 0.08-0.15 0.06-0.22l0.14-0.04-63.69-47.98zm-0.8 19.25c-0.1 0-0.08 0.13 0.01 0.4 0.26 0.79 44.64 37.59 45.37 37.61 0.3 0.01 0.54-0.07 0.54-0.18 0-0.2-43.66-36.33-45.23-37.43-0.38-0.27-0.59-0.4-0.69-0.4zm77.54 38.93c-0.08 0.05 0.28 0.43 1.18 1.18 1.28 1.07 1.42 1.41 1.3 3.09l-0.15 1.89-7.88 3.48c-4.33 1.91-8.08 3.47-8.32 3.45-0.24-0.01-1.82-1.17-3.49-2.59-1.68-1.42-3.24-2.46-3.47-2.32-0.24 0.14 0.3 0.87 1.18 1.61 1.38 1.16 1.61 1.61 1.61 3.16 0 0.99-0.24 2.01-0.54 2.25s-3.51 1.73-7.12 3.3l-6.57 2.87 0.16 15.26c0.08 8.39 0.24 15.39 0.33 15.55 0.18 0.31 6.32-2.6 30.94-14.67 8.13-3.99 14.79-7.41 14.79-7.61 0.01-0.2 0.3-5.58 0.65-11.97 0.35-6.38 0.64-12.93 0.64-14.54l0.02-2.93-4.42 1.96-4.41 1.95-3.03-2.2c-1.83-1.33-3.05-2.1-3.34-2.17h-0.06z"
       transform="translate(-1003.8 185.17)"
       fill="#fff"
       id="path8" />
  </g>
  <metadata
     id="metadata10">
    <rdf:RDF>
      <cc:Work>
        <dc:format>image/svg+xml</dc:format>
        <dc:type
           rdf:resource="http://purl.org/dc/dcmitype/StillImage" />
        <cc:license
           rdf:resource="http://creativecommons.org/publicdomain/zero/1.0/" />
        <dc:publisher>
          <cc:Agent
             rdf:about="http://openclipart.org/">
            <dc:title>Openclipart</dc:title>
          </cc:Agent>
        </dc:publisher>
        <dc:title>Park Bench</dc:title>
        <dc:date>2010-05-28T02:29:22</dc:date>
        <dc:description>The type of bench typically found in a public venue such as a park or bus stop.</dc:description>
        <dc:source>https://openclipart.org/detail/63445/park-bench-by-mazeo-63445</dc:source>
        <dc:creator>
          <cc:Agent>
            <dc:title>mazeo</dc:title>
          </cc:Agent>
        </dc:creator>
        <dc:subject>
          <rdf:Bag>
            <rdf:li>bench</rdf:li>
            <rdf:li>bus bench</rdf:li>
            <rdf:li>bus stop bench</rdf:li>
            <rdf:li>park bench</rdf:li>
            <rdf:li>public bench</rdf:li>
            <rdf:li>seat</rdf:li>
            <rdf:li>silhouette</rdf:li>
          </rdf:Bag>
        </dc:subject>
      </cc:Work>
      <cc:License
         rdf:about="http://creativecommons.org/publicdomain/zero/1.0/">
        <cc:permits
           rdf:resource="http://creativecommons.org/ns#Reproduction" />
        <cc:permits
           rdf:resource="http://creativecommons.org/ns#Distribution" />
        <cc:permits
           rdf:resource="http://creativecommons.org/ns#DerivativeWorks" />
      </cc:License>
    </rdf:RDF>
  </metadata>
</svg>
